# xmcd CD database file
#
# Track frame offsets:
#	225
#	14689
#	37068
#	60665
#	76225
#	88679
#	103641
#	124105
#	145443
#	156944
#	177082
#
# Disc length: 2659 seconds
#
# Revision: 0
# Processed by: cddbd v1.5.1PL0 Copyright (c) Steve Scherf et al.
# Submitted via: cdripper 1.0.7
#
DISCID=930a600b
DTITLE=Greg Serrato - Child of the Blues
DYEAR=1998
DGENRE=Blues
TTITLE0=The Way I Look at You
TTITLE1=Texas Walk
TTITLE2=That Ain't Right
TTITLE3=This Ol' Guitar
TTITLE4=Back to California
TTITLE5=Like a Tornado
TTITLE6=Snake Skin Boots
TTITLE7=Have You Ever
TTITLE8=On Fire
TTITLE9=Child of the Blues
TTITLE10=Blue Serenity
EXTD=YEAR: 1998
EXTT0=
EXTT1=
EXTT2=
EXTT3=
EXTT4=
EXTT5=
EXTT6=
EXTT7=
EXTT8=
EXTT9=
EXTT10=
PLAYORDER=
